<svg width="10" height="40" viewBox="0 0 10 40" fill="none" xmlns="http://www.w3.org/2000/svg">
<path d="M1.672 21.24C1.672 20.8293 1.74933 20.4427 1.904 20.08C2.064 19.7173 2.27733 19.4027 2.544 19.136C2.81067 18.864 3.12267 18.6507 3.48 18.496C3.84267 18.336 4.22667 18.256 4.632 18.256C5.04267 18.256 5.42667 18.336 5.784 18.496C6.14667 18.6507 6.46133 18.864 6.728 19.136C7 19.4027 7.21333 19.7173 7.368 20.08C7.528 20.4427 7.608 20.8293 7.608 21.24C7.608 21.6507 7.528 22.0373 7.368 22.4C7.21333 22.7573 7 23.0693 6.728 23.336C6.46133 23.6027 6.14667 23.816 5.784 23.976C5.42667 24.1307 5.04267 24.208 4.632 24.208C4.22667 24.208 3.84267 24.1307 3.48 23.976C3.12267 23.816 2.81067 23.6027 2.544 23.336C2.27733 23.0693 2.064 22.7573 1.904 22.4C1.74933 22.0373 1.672 21.6507 1.672 21.24Z" fill="#BFC5CE"/>
</svg>
